<svg width="317" height="317" viewBox="0 0 317 317" fill="none" xmlns="http://www.w3.org/2000/svg">
    <rect width="317" height="317" fill="white" />
    <path
        d="M184.88 160.92C184.88 160.552 184.744 160.2 184.472 159.864C184.2 159.512 183.72 159.312 183.032 159.264C182.584 159.808 182.04 160.08 181.4 160.08C180.856 160.08 180.392 159.888 180.008 159.504C179.624 159.12 179.432 158.648 179.432 158.088C179.432 157.528 179.624 157.056 180.008 156.672C180.392 156.288 180.856 156.096 181.4 156.096C181.688 156.096 181.968 156.176 182.24 156.336C182.528 156.496 182.784 156.688 183.008 156.912C183.36 156.896 183.632 156.84 183.824 156.744C184.016 156.648 184.152 156.536 184.232 156.408C184.328 156.264 184.384 156.104 184.4 155.928C184.416 155.752 184.424 155.576 184.424 155.4V152.976C184.424 152.576 184.296 152.208 184.04 151.872C183.8 151.536 183.384 151.368 182.792 151.368H177.776L177.752 167.208C177.752 167.528 177.6 167.776 177.296 167.952C177.008 168.112 176.688 168.192 176.336 168.192C175.392 168.192 174.92 167.808 174.92 167.04V150.384C174.92 149.808 175.064 149.424 175.352 149.232C175.656 149.04 176.016 148.944 176.432 148.944H183.392C183.808 148.944 184.248 149.024 184.712 149.184C185.192 149.344 185.64 149.56 186.056 149.832H186.032C186.448 150.136 186.752 150.536 186.944 151.032C187.152 151.528 187.256 152.104 187.256 152.76V155.472C187.256 156.112 187.12 156.64 186.848 157.056C186.576 157.456 186.288 157.776 185.984 158.016C186.192 158.144 186.392 158.28 186.584 158.424C186.776 158.552 186.936 158.696 187.064 158.856C187.272 159.08 187.432 159.344 187.544 159.648C187.672 159.952 187.736 160.312 187.736 160.728V164.16C187.736 165.472 187.224 166.44 186.2 167.064C185.688 167.384 185.2 167.624 184.736 167.784C184.288 167.944 183.84 168.024 183.392 168.024H179.84C179.568 168.024 179.352 167.912 179.192 167.688C179.048 167.464 178.976 167.168 178.976 166.8C178.976 166 179.312 165.6 179.984 165.6H183.272C183.864 165.6 184.28 165.432 184.52 165.096C184.76 164.76 184.88 164.384 184.88 163.968V160.92ZM198.79 153.552C199.206 153.552 199.63 153.64 200.062 153.816C200.51 153.992 200.942 154.216 201.358 154.488H201.334C201.75 154.792 202.07 155.192 202.294 155.688C202.518 156.168 202.63 156.728 202.63 157.368V164.184C202.63 165.496 202.198 166.464 201.334 167.088C200.486 167.696 199.638 168 198.79 168H194.95C194.534 168 194.11 167.928 193.678 167.784C193.246 167.64 192.822 167.408 192.406 167.088C191.542 166.48 191.11 165.512 191.11 164.184V157.368C191.11 156.728 191.222 156.168 191.446 155.688C191.67 155.192 191.99 154.792 192.406 154.488H192.382C192.782 154.216 193.206 153.992 193.654 153.816C194.102 153.64 194.534 153.552 194.95 153.552H198.79ZM198.358 165.744C198.95 165.744 199.366 165.576 199.606 165.24C199.862 164.904 199.99 164.544 199.99 164.16V157.392C199.99 156.992 199.862 156.632 199.606 156.312C199.366 155.976 198.95 155.808 198.358 155.808H195.382C194.79 155.808 194.366 155.976 194.11 156.312C193.87 156.632 193.75 156.992 193.75 157.392V164.16C193.75 164.544 193.87 164.904 194.11 165.24C194.366 165.576 194.79 165.744 195.382 165.744H198.358ZM209.289 168C208.793 168 208.321 167.936 207.873 167.808C207.425 167.664 206.993 167.464 206.577 167.208V167.232C205.793 166.736 205.401 165.824 205.401 164.496V163.32C205.401 162.664 205.513 162.096 205.737 161.616C205.977 161.12 206.305 160.728 206.721 160.44H206.697C207.097 160.168 207.521 159.968 207.969 159.84C208.417 159.696 208.849 159.624 209.265 159.624H214.569V157.392C214.569 156.992 214.441 156.632 214.185 156.312C213.945 155.976 213.529 155.808 212.937 155.808H210.129C209.521 155.808 209.097 155.96 208.857 156.264C208.633 156.552 208.521 156.896 208.521 157.296V157.488C208.521 158.32 208.073 158.736 207.177 158.736C206.281 158.736 205.833 158.32 205.833 157.488V157.272C205.833 156.616 205.945 156.064 206.169 155.616C206.409 155.168 206.729 154.792 207.129 154.488H207.105C207.521 154.216 207.953 153.992 208.401 153.816C208.865 153.64 209.305 153.552 209.721 153.552H213.369C213.769 153.552 214.193 153.64 214.641 153.816C215.105 153.992 215.537 154.216 215.937 154.488H215.913C216.329 154.792 216.649 155.192 216.873 155.688C217.097 156.168 217.209 156.728 217.209 157.368V166.992C217.209 167.76 216.769 168.144 215.889 168.144C215.713 168.144 215.545 168.136 215.385 168.12C215.241 168.104 215.105 168.064 214.977 168C214.865 167.92 214.769 167.816 214.689 167.688C214.625 167.544 214.593 167.36 214.593 167.136L214.569 161.88H209.721C209.369 161.88 209.097 161.92 208.905 162C208.713 162.08 208.561 162.208 208.449 162.384C208.321 162.656 208.225 162.872 208.161 163.032C208.113 163.176 208.089 163.344 208.089 163.536V164.472C208.089 164.888 208.209 165.208 208.449 165.432C208.705 165.64 209.137 165.744 209.745 165.744H212.433C213.025 165.744 213.321 166.12 213.321 166.872C213.321 167.192 213.249 167.464 213.105 167.688C212.961 167.896 212.737 168 212.433 168H209.289ZM222.905 166.992C222.905 167.76 222.465 168.144 221.585 168.144C220.673 168.144 220.217 167.76 220.217 166.992V157.056C220.217 155.744 220.609 154.832 221.393 154.32C222.177 153.808 223.081 153.552 224.105 153.552H226.841C227.433 153.552 227.729 153.928 227.729 154.68C227.761 155.432 227.465 155.808 226.841 155.808H224.297C223.721 155.808 223.345 155.92 223.169 156.144C222.993 156.368 222.905 156.68 222.905 157.08V166.992ZM238.663 155.808H234.031C233.375 155.808 232.943 156 232.735 156.384C232.511 156.72 232.399 157.112 232.399 157.56V164.472C232.399 164.888 232.527 165.208 232.783 165.432C233.039 165.64 233.463 165.744 234.055 165.744H236.527C237.103 165.744 237.391 166.12 237.391 166.872C237.391 167.192 237.319 167.464 237.175 167.688C237.047 167.896 236.831 168 236.527 168H233.623C232.615 168 231.719 167.744 230.935 167.232C230.151 166.752 229.759 165.84 229.759 164.496V157.344C229.759 156.688 229.863 156.12 230.071 155.64C230.279 155.16 230.607 154.768 231.055 154.464C231.903 153.856 232.751 153.552 233.599 153.552H238.663V149.952C238.663 149.184 239.103 148.8 239.983 148.8C240.863 148.8 241.303 149.184 241.303 149.952V166.992C241.303 167.76 240.863 168.144 239.983 168.144C239.647 168.144 239.343 168.088 239.071 167.976C238.799 167.848 238.663 167.576 238.663 167.16V155.808Z"
        fill="black" />
    <path
        d="M131.392 165.6C131.984 165.6 132.4 165.432 132.64 165.096C132.88 164.76 133 164.384 133 163.968V152.976C133 152.576 132.88 152.208 132.64 151.872C132.4 151.536 131.984 151.368 131.392 151.368H125.776L125.752 167.016C125.752 167.368 125.616 167.648 125.344 167.856C125.072 168.064 124.736 168.168 124.336 168.168C123.392 168.168 122.92 167.784 122.92 167.016V150.384C122.92 149.808 123.064 149.424 123.352 149.232C123.656 149.04 124.016 148.944 124.432 148.944H131.992C132.408 148.944 132.84 149.032 133.288 149.208C133.736 149.384 134.168 149.608 134.584 149.88H134.56C134.976 150.184 135.296 150.584 135.52 151.08C135.744 151.56 135.856 152.12 135.856 152.76V164.16C135.856 165.456 135.424 166.424 134.56 167.064C134.144 167.368 133.712 167.608 133.264 167.784C132.832 167.944 132.408 168.024 131.992 168.024H127.96C127.688 168.024 127.472 167.912 127.312 167.688C127.168 167.464 127.096 167.168 127.096 166.8C127.096 166 127.44 165.6 128.128 165.6H131.392ZM141.026 168.024C140.434 168.024 140.034 167.872 139.826 167.568C139.618 167.264 139.514 166.928 139.514 166.56V150.384C139.514 150.016 139.618 149.688 139.826 149.4C140.034 149.096 140.434 148.944 141.026 148.944H149.378C149.97 148.944 150.282 149.344 150.314 150.144C150.346 150.96 150.034 151.368 149.378 151.368H142.346V165.6H149.81C150.402 165.6 150.706 165.992 150.722 166.776C150.754 167.608 150.45 168.024 149.81 168.024H141.026ZM148.49 158.088C148.49 158.648 148.29 159.12 147.89 159.504C147.506 159.888 147.034 160.08 146.474 160.08C145.93 160.08 145.466 159.888 145.082 159.504C144.698 159.12 144.506 158.648 144.506 158.088C144.506 157.528 144.698 157.056 145.082 156.672C145.466 156.288 145.93 156.096 146.474 156.096C147.034 156.096 147.506 156.288 147.89 156.672C148.29 157.056 148.49 157.528 148.49 158.088ZM158.958 168.12C158.638 168.12 158.294 168.072 157.926 167.976C157.574 167.864 157.318 167.664 157.158 167.376C156.79 166.128 156.406 164.848 156.006 163.536C155.606 162.224 155.206 160.936 154.806 159.672C154.358 158.184 153.878 156.64 153.366 155.04C152.854 153.424 152.374 151.88 151.926 150.408C151.83 150.056 151.886 149.752 152.094 149.496C152.302 149.224 152.598 149.024 152.982 148.896C153.222 148.832 153.43 148.8 153.606 148.8C154.15 148.8 154.502 149.072 154.662 149.616L156.438 155.304C156.598 155.88 156.782 156.512 156.99 157.2C157.214 157.888 157.438 158.592 157.662 159.312C157.886 160.032 158.11 160.752 158.334 161.472C158.558 162.176 158.766 162.832 158.958 163.44C159.262 162.432 159.59 161.344 159.942 160.176C160.31 158.992 160.678 157.792 161.046 156.576C161.43 155.36 161.806 154.16 162.174 152.976C162.542 151.776 162.886 150.656 163.206 149.616C163.382 149.072 163.726 148.8 164.238 148.8C164.43 148.8 164.654 148.832 164.91 148.896C165.79 149.136 166.134 149.64 165.942 150.408C165.078 153.208 164.206 156.032 163.326 158.88C162.446 161.728 161.574 164.56 160.71 167.376C160.582 167.696 160.342 167.904 159.99 168C159.654 168.08 159.31 168.12 158.958 168.12Z"
        fill="url(#paint0_linear_69735_5778)" />
    <path
        d="M82.48 159.136C83.152 159.52 83.44 160.12 83.44 160.72C83.44 161.656 82.744 162.568 81.808 162.568C81.544 162.568 81.232 162.472 80.944 162.304L74.968 159.04C74.2 158.608 73.696 157.744 73.696 156.856C73.696 155.92 74.2 155.08 74.968 154.624L80.944 151.144C81.232 150.976 81.544 150.88 81.808 150.88C82.744 150.88 83.44 151.792 83.44 152.728C83.44 153.328 83.152 153.928 82.48 154.312L78.184 156.712L82.48 159.136ZM94.6163 168.376C93.8243 170.584 90.1763 170.368 90.9683 167.872L98.0003 148.384C98.3363 147.448 98.9603 146.848 99.9923 146.848C100.712 146.848 101.216 147.136 101.48 147.496C101.768 147.88 101.816 148.36 101.672 148.744L94.6163 168.376ZM104.624 159.136L108.92 156.712L104.624 154.312C103.952 153.928 103.664 153.328 103.664 152.728C103.664 151.792 104.36 150.88 105.296 150.88C105.56 150.88 105.872 150.976 106.16 151.144L112.136 154.624C112.904 155.08 113.408 155.92 113.408 156.856C113.408 157.744 112.904 158.608 112.136 159.04L106.16 162.304C105.872 162.472 105.56 162.568 105.296 162.568C104.36 162.568 103.664 161.656 103.664 160.72C103.664 160.12 103.952 159.52 104.624 159.136Z"
        fill="url(#paint1_linear_69735_5778)" />
    <defs>
        <linearGradient id="paint0_linear_69735_5778" x1="114.22" y1="144" x2="168.956" y2="148.722"
            gradientUnits="userSpaceOnUse">
            <stop stop-color="#2563EB" />
            <stop offset="1" stop-color="#2196F3" />
        </linearGradient>
        <linearGradient id="paint1_linear_69735_5778" x1="66.8092" y1="145" x2="116.825"
            y2="149.075" gradientUnits="userSpaceOnUse">
            <stop stop-color="#2563EB" />
            <stop offset="1" stop-color="#2196F3" />
        </linearGradient>
    </defs>
</svg>