<svg width="56" height="58" viewBox="0 0 56 58" fill="none" xmlns="http://www.w3.org/2000/svg">
<rect width="56" height="58" rx="28" fill="white"/>
<path d="M15.392 35.6C15.984 35.6 16.4 35.432 16.64 35.096C16.88 34.76 17 34.384 17 33.968V22.976C17 22.576 16.88 22.208 16.64 21.872C16.4 21.536 15.984 21.368 15.392 21.368H9.776L9.752 37.016C9.752 37.368 9.616 37.648 9.344 37.856C9.072 38.064 8.736 38.168 8.336 38.168C7.392 38.168 6.92 37.784 6.92 37.016V20.384C6.92 19.808 7.064 19.424 7.352 19.232C7.656 19.04 8.016 18.944 8.432 18.944H15.992C16.408 18.944 16.84 19.032 17.288 19.208C17.736 19.384 18.168 19.608 18.584 19.88H18.56C18.976 20.184 19.296 20.584 19.52 21.08C19.744 21.56 19.856 22.12 19.856 22.76V34.16C19.856 35.456 19.424 36.424 18.56 37.064C18.144 37.368 17.712 37.608 17.264 37.784C16.832 37.944 16.408 38.024 15.992 38.024H11.96C11.688 38.024 11.472 37.912 11.312 37.688C11.168 37.464 11.096 37.168 11.096 36.8C11.096 36 11.44 35.6 12.128 35.6H15.392ZM25.0263 38.024C24.4343 38.024 24.0343 37.872 23.8263 37.568C23.6183 37.264 23.5143 36.928 23.5143 36.56V20.384C23.5143 20.016 23.6183 19.688 23.8263 19.4C24.0343 19.096 24.4343 18.944 25.0263 18.944H33.3783C33.9703 18.944 34.2823 19.344 34.3143 20.144C34.3463 20.96 34.0343 21.368 33.3783 21.368H26.3463V35.6H33.8103C34.4023 35.6 34.7063 35.992 34.7223 36.776C34.7543 37.608 34.4503 38.024 33.8103 38.024H25.0263ZM32.4903 28.088C32.4903 28.648 32.2903 29.12 31.8903 29.504C31.5063 29.888 31.0343 30.08 30.4743 30.08C29.9303 30.08 29.4663 29.888 29.0823 29.504C28.6983 29.12 28.5063 28.648 28.5063 28.088C28.5063 27.528 28.6983 27.056 29.0823 26.672C29.4663 26.288 29.9303 26.096 30.4743 26.096C31.0343 26.096 31.5063 26.288 31.8903 26.672C32.2903 27.056 32.4903 27.528 32.4903 28.088ZM42.9584 38.12C42.6384 38.12 42.2944 38.072 41.9264 37.976C41.5744 37.864 41.3184 37.664 41.1584 37.376C40.7904 36.128 40.4064 34.848 40.0064 33.536C39.6064 32.224 39.2064 30.936 38.8064 29.672C38.3584 28.184 37.8784 26.64 37.3664 25.04C36.8544 23.424 36.3744 21.88 35.9264 20.408C35.8304 20.056 35.8864 19.752 36.0944 19.496C36.3024 19.224 36.5984 19.024 36.9824 18.896C37.2224 18.832 37.4304 18.8 37.6064 18.8C38.1504 18.8 38.5024 19.072 38.6624 19.616L40.4384 25.304C40.5984 25.88 40.7824 26.512 40.9904 27.2C41.2144 27.888 41.4384 28.592 41.6624 29.312C41.8864 30.032 42.1104 30.752 42.3344 31.472C42.5584 32.176 42.7664 32.832 42.9584 33.44C43.2624 32.432 43.5904 31.344 43.9424 30.176C44.3104 28.992 44.6784 27.792 45.0464 26.576C45.4304 25.36 45.8064 24.16 46.1744 22.976C46.5424 21.776 46.8864 20.656 47.2064 19.616C47.3824 19.072 47.7264 18.8 48.2384 18.8C48.4304 18.8 48.6544 18.832 48.9104 18.896C49.7904 19.136 50.1344 19.64 49.9424 20.408C49.0784 23.208 48.2064 26.032 47.3264 28.88C46.4464 31.728 45.5744 34.56 44.7104 37.376C44.5824 37.696 44.3424 37.904 43.9904 38C43.6544 38.08 43.3104 38.12 42.9584 38.12Z" fill="url(#paint0_linear_69253_5946)"/>
<defs>
<linearGradient id="paint0_linear_69253_5946" x1="-1.78035" y1="14" x2="52.9556" y2="18.7218" gradientUnits="userSpaceOnUse">
<stop stop-color="#2563EB"/>
<stop offset="1" stop-color="#2196F3"/>
</linearGradient>
</defs>
</svg>
